<svg width="346" height="370" viewBox="0 0 346 370" fill="none" xmlns="http://www.w3.org/2000/svg">
<path d="M233.409 160.248C199.716 154.77 133.419 154.77 99.7262 160.248C65.6042 165.792 30.9542 176.319 25.7402 185.13C25.7402 185.13 55.3742 213.609 166.551 213.609C277.728 213.609 307.362 185.13 307.362 185.13C302.148 176.319 267.465 165.792 233.409 160.248Z" fill="#66879D"/>
<path d="M97.9769 186.912C80.9159 189.618 63.7229 193.512 49.9619 197.802C70.6859 205.392 106.854 213.609 166.551 213.609C226.248 213.609 262.416 205.392 283.14 197.802C269.379 193.512 252.186 189.618 235.125 186.912C200.574 181.434 132.528 181.434 97.9769 186.912Z" fill="#93C037"/>
<path d="M166.551 213.575C166.551 213.575 50.853 204.698 0 185.195C0 185.195 12.474 289.871 54.384 328.019C96.294 366.167 125.73 369.269 166.518 369.269C207.306 369.269 236.742 366.167 278.652 328.019C320.562 289.871 333.069 185.195 333.069 185.195C282.249 204.731 166.551 213.575 166.551 213.575Z" fill="#B7E4FF"/>
<path d="M245.619 153.053C205.788 145.991 127.347 145.991 87.516 153.053C47.157 160.214 6.204 173.843 0 185.195C0 185.195 35.046 222.023 166.551 222.023C298.056 222.023 333.102 185.195 333.102 185.195C326.898 173.843 285.912 160.214 245.619 153.053Z" fill="#94C7E4"/>
<path d="M233.409 160.247C199.716 154.769 133.419 154.769 99.7262 160.247C65.6042 165.791 30.9542 176.318 25.7402 185.129C25.7402 185.129 55.3742 213.608 166.551 213.608C277.728 213.608 307.362 185.129 307.362 185.129C302.148 176.318 267.465 165.791 233.409 160.247Z" fill="#66879D"/>
<path d="M166.551 147.882C295.35 147.882 332.805 185.71 333.102 185.182C333.102 185.182 298.056 146.912 166.551 146.912C35.0456 146.912 -0.000416677 185.182 -0.000416677 185.182C0.296596 185.71 42.3518 146.912 166.551 147.882Z" fill="#E4D151"/>
<path d="M97.9769 186.911C80.9159 189.617 63.7229 193.511 49.9619 197.801C70.6859 205.391 106.854 213.608 166.551 213.608C226.248 213.608 262.416 205.391 283.14 197.801C269.379 193.511 252.186 189.617 235.125 186.911C200.574 181.433 132.528 181.433 97.9769 186.911Z" fill="#93C037"/>
<path d="M237.998 105.606C233.281 111.816 233.047 118.201 237.362 124.729C219.644 127.318 202.26 126.919 185.276 123.013C189.985 116.786 190.195 110.392 185.912 103.89C185.912 103.89 188.314 34.1018 188.315 19.508L240.401 21.224C240.4 41.4913 237.998 105.606 237.998 105.606Z" fill="#EACD90"/>
<path d="M185.284 123.03C149.242 195.248 123.083 283.063 170.537 287.771C121.347 263.26 163.239 191.972 187.736 123.265L185.284 123.03Z" fill="#FFD57D"/>
<path d="M191.14 123.488C162.785 188.513 136.743 272.34 176.724 293.762C146.361 260.629 164.547 186.722 193.94 123.99L191.14 123.488Z" fill="#F4AD36"/>
<path d="M195.656 123.382C174.216 179.98 146.928 309.93 186.33 297.932C186.33 297.932 165.441 300.229 169.062 254.703C172.368 212.868 197.534 123.433 197.534 123.433L195.656 123.382Z" fill="#FFD57D"/>
<path d="M198.758 123.745C184.735 205.616 156.4 295.208 191.09 299.017C191.09 299.017 172.26 286.956 177.01 254.482C180.199 232.632 201.281 123.559 201.281 123.559L198.758 123.745Z" fill="#F4AD36"/>
<path d="M200.569 299.333C173.424 299.156 183.202 219.039 204.069 123.639L205.434 123.682C193.392 201.012 172.636 283.97 200.569 299.333Z" fill="#FFD57D"/>
<path d="M205.556 299.498C195.75 291.712 203.334 182.935 209.875 124.12L211.694 124.177C205.184 172.32 201.423 288.769 205.556 299.498Z" fill="#FFD57D"/>
<path d="M206.724 125.064C195.077 185.398 184.974 283.68 200.569 299.332C192.014 266.025 198.243 187.403 208.337 125.115L206.724 125.064Z" fill="#F4AD36"/>
<path d="M237.37 124.746C268.584 199.183 289.648 288.552 241.987 290.114C292.685 268.892 254.388 194.828 234.451 124.646L237.37 124.746Z" fill="#F4AD36"/>
<path d="M232.258 124.842C256.278 191.592 276.748 276.934 235.435 295.703C267.912 264.625 254.624 189.685 229.433 125.167L232.258 124.842Z" fill="#FFD57D"/>
<path d="M227.75 124.435C245.426 182.332 264.111 313.78 225.587 299.227C225.587 299.227 246.271 302.893 245.666 257.217C245.108 215.269 225.872 124.384 225.872 124.384L227.75 124.435Z" fill="#F4AD36"/>
<path d="M224.623 124.593C233.239 207.211 255.609 298.484 220.743 299.993C220.743 299.993 240.318 289.192 237.723 256.478C235.982 234.456 222.117 124.241 222.117 124.241L224.623 124.593Z" fill="#FFD57D"/>
<path d="M211.289 299.687C238.381 301.294 233.899 220.703 219.347 124.153L217.982 124.11C224.907 202.046 240.157 286.189 211.289 299.687Z" fill="#F4AD36"/>
<path d="M206.302 299.522C216.587 292.394 216.189 183.365 213.515 124.235L211.695 124.177C215.02 172.655 211.118 289.108 206.302 299.522Z" fill="#F4AD36"/>
<path d="M216.599 125.4C224.241 186.376 229.537 274.254 211.272 299.695C219.338 262.879 220.964 188.152 214.97 125.357L216.599 125.4Z" fill="#FFD57D"/>
<path d="M181.271 124.759C180.155 126.802 181.777 129.213 184.324 129.301L237.965 131.075C240.554 131.164 242.334 128.795 241.267 126.658C240.715 125.547 239.504 124.822 238.163 124.788L184.539 123.007C183.15 122.955 181.878 123.643 181.271 124.759Z" fill="#792323"/>
<path d="M166.551 213.575C166.551 213.575 50.853 204.698 0 185.195C0 185.195 12.474 289.871 54.384 328.019C96.294 366.167 125.73 369.269 166.518 369.269C207.306 369.269 236.742 366.167 278.652 328.019C320.562 289.871 333.069 185.195 333.069 185.195C282.249 204.731 166.551 213.575 166.551 213.575Z" fill="#94C7E4"/>
<path d="M14.1436 251.703C22.6246 280.215 35.5243 310.852 54.3838 328.019C96.2938 366.167 125.73 369.269 166.518 369.269C207.306 369.269 236.742 366.167 278.652 328.019C297.386 310.968 310.243 280.621 318.737 252.274C318.737 252.274 313.539 282.429 166.349 282.429C22.3507 282.429 14.1436 251.703 14.1436 251.703Z" fill="#83AFC8"/>
<path d="M166.551 221.495C48.576 221.495 0.297 184.667 0 185.195C0 185.195 35.046 224.465 166.551 224.465C298.056 224.465 333.102 185.195 333.102 185.195C332.805 184.667 284.526 221.495 166.551 221.495Z" fill="#E4D151"/>
<path d="M49.9619 197.801C70.6859 205.391 106.854 213.608 166.551 213.608C226.248 213.608 262.416 205.391 283.14 197.801C281.015 197.174 274.444 194.455 265.178 196.204C261.122 196.969 256.512 198.237 251.44 195.692C247.998 193.966 242.306 192.402 239.158 195.372C236.986 197.422 234.769 197.831 232.518 195.237C230.749 193.201 226.538 193.468 224.228 195.095C219.331 198.547 214.16 194.788 209.085 194.897C201.356 195.065 193.69 197.953 185.727 194.725C176.896 191.145 165.967 197.778 156.351 197.801C151.084 197.814 146.368 194.732 141.197 194.762C135.521 194.798 130.805 197.745 125.35 197.801C119.552 197.86 112.768 195.286 107.352 195.372C98.4554 195.517 90.7202 197.59 83.3513 197.801C65.5709 198.316 52.8329 196.887 49.9619 197.801Z" fill="#93C037"/>
<path d="M221.463 196.778C221.463 198.065 218.724 199.088 215.358 199.088C211.992 199.088 209.253 198.065 209.253 196.778C209.253 195.491 211.992 194.468 215.358 194.468C218.724 194.468 221.463 195.491 221.463 196.778Z" fill="#77AA00"/>
<path d="M93.3898 196.547C95.8303 196.547 97.8118 197.39 97.8118 198.428C97.8118 199.466 95.8303 200.309 93.3898 200.309C90.9493 200.309 88.9678 199.466 88.9678 198.428C88.9678 197.39 90.9493 196.547 93.3898 196.547Z" fill="#77AA00"/>
<path d="M156.783 203.114C159.224 203.114 161.205 203.957 161.205 204.995C161.205 206.033 159.224 206.876 156.783 206.876C154.343 206.876 152.361 206.033 152.361 204.995C152.361 203.957 154.343 203.114 156.783 203.114Z" fill="#77AA00"/>
<path d="M202.745 206.612C205.186 206.612 207.167 207.455 207.167 208.493C207.167 209.531 205.186 210.374 202.745 210.374C200.305 210.374 198.323 209.531 198.323 208.493C198.323 207.455 200.305 206.612 202.745 206.612Z" fill="#77AA00"/>
<path d="M247.401 199.352C247.401 199.88 246.411 200.276 245.223 200.276C244.002 200.276 243.045 199.847 243.045 199.352C243.045 198.857 244.035 198.428 245.223 198.428C246.411 198.428 247.401 198.824 247.401 199.352Z" fill="#77AA00"/>
<path d="M142.541 205.952C142.541 206.447 141.551 206.876 140.363 206.876C139.142 206.876 138.185 206.447 138.185 205.952C138.185 205.424 139.175 205.028 140.363 205.028C141.584 205.028 142.541 205.457 142.541 205.952Z" fill="#77AA00"/>
<path d="M190.971 201.2C190.971 201.695 189.981 202.124 188.793 202.124C187.572 202.124 186.615 201.695 186.615 201.2C186.615 200.672 187.605 200.276 188.793 200.276C189.981 200.276 190.971 200.705 190.971 201.2Z" fill="#77AA00"/>
<path d="M107.679 203.147C107.679 203.642 106.689 204.071 105.501 204.071C104.28 204.071 103.323 203.642 103.323 203.147C103.323 202.619 104.313 202.223 105.501 202.223C106.689 202.223 107.679 202.619 107.679 203.147Z" fill="#77AA00"/>
<path d="M131.604 196.316C131.604 196.811 130.614 197.24 129.426 197.24C128.205 197.24 127.248 196.811 127.248 196.316C127.248 195.788 128.238 195.392 129.426 195.392C130.614 195.392 131.604 195.821 131.604 196.316Z" fill="#77AA00"/>
</svg>