<svg width="292" height="292" viewBox="0 0 292 292" fill="none" xmlns="http://www.w3.org/2000/svg">
<circle cx="146" cy="146" r="146" fill="white"/>
<path fill-rule="evenodd" clip-rule="evenodd" d="M174.535 82.8591C179.294 82.8591 184.045 83.5303 188.563 85.0462C216.399 94.0962 226.429 124.64 218.051 151.337C213.299 164.98 205.531 177.432 195.358 187.605C180.795 201.708 164.814 214.227 147.611 225.012L145.726 226.151L143.765 224.937C126.502 214.227 110.431 201.708 95.7323 187.53C85.6265 177.356 77.851 164.98 73.0244 151.337C64.5023 124.64 74.5327 94.0962 102.671 84.8878C104.858 84.1337 107.113 83.6057 109.375 83.3116H110.28C112.399 83.0024 114.504 82.8591 116.615 82.8591H117.445C122.196 83.0024 126.796 83.832 131.254 85.3479H131.699C132 85.4912 132.226 85.6495 132.377 85.7928C134.044 86.3283 135.62 86.9316 137.129 87.7612L139.994 89.0433C140.687 89.4126 141.464 89.9769 142.136 90.4647C142.562 90.7737 142.945 91.0519 143.237 91.2304C143.36 91.303 143.485 91.376 143.612 91.4496C144.258 91.8271 144.932 92.2203 145.5 92.6557C153.879 86.2529 164.052 82.7837 174.535 82.8591ZM194.595 137.159C197.687 137.076 200.326 134.595 200.552 131.42V130.522C200.779 119.957 194.376 110.386 184.64 106.691C181.547 105.627 178.154 107.294 177.022 110.462C175.967 113.629 177.626 117.098 180.793 118.222C185.628 120.032 188.863 124.791 188.863 130.062V130.296C188.72 132.023 189.24 133.69 190.296 134.972C191.352 136.254 192.935 137.001 194.595 137.159Z" fill="#CD0000"/>
</svg>
