<svg width="701" height="727" viewBox="0 0 701 727" fill="none" xmlns="http://www.w3.org/2000/svg">
<rect x="15" width="671" height="495" fill="url(#paint0_linear)"/>
<path d="M543.14 257.396L549.862 255.707L545.097 262.343L543.14 257.396Z" fill="#4B369D"/>
<path d="M517.633 279.398C515.755 282.11 513.837 285.368 511.524 287.795C509.211 290.197 504.881 290.673 503.141 293.266C508.538 300.354 521.865 295.335 527.697 291.648C535.468 286.748 541.795 278.328 544.543 268.242C546.006 262.867 546.243 256.111 542.704 252.377C540.984 250.569 538.69 249.808 536.456 249.213C532.957 248.262 528.666 247.263 525.206 248.951C519.947 251.52 525.681 251.14 526.867 254.042C528.251 257.467 525.364 264.008 524.119 266.958C522.22 271.287 520.224 275.616 517.633 279.398Z" fill="#A7ADFF"/>
<path d="M538.236 257.396C539.011 257.396 539.64 256.64 539.64 255.707C539.64 254.774 539.011 254.018 538.236 254.018C537.461 254.018 536.832 254.774 536.832 255.707C536.832 256.64 537.461 257.396 538.236 257.396Z" fill="#4B369D"/>
<path d="M514.668 258.466C511.05 256.896 506.977 256.016 504.248 252.757C502.745 250.95 501.48 248.357 499.364 248.143C499.048 248.119 498.692 248.143 498.455 248.428C498.158 248.761 498.158 249.308 498.178 249.808C498.297 252.71 498.435 255.683 499.384 258.347C500.333 261.011 502.311 263.342 504.723 263.604C505.019 263.628 505.336 263.651 505.593 263.818C506.324 264.341 505.909 265.745 505.276 266.411C504.624 267.077 503.734 267.6 503.556 268.599C503.358 269.646 504.13 270.692 504.999 270.978C505.869 271.263 506.779 271.025 507.669 270.764C507.352 272.619 507.273 275.069 508.717 275.806C509.982 276.425 511.702 275.212 512.671 276.353C513.027 276.782 513.165 277.424 513.363 277.971C514.015 279.779 515.657 280.897 517.298 281.087C518.939 281.277 520.58 280.706 522.082 279.898C525.958 277.828 530.228 273.214 527.124 268.433C524.178 263.913 519.057 260.393 514.668 258.466Z" fill="#978CFF"/>
<path d="M499.012 157.134C527.663 158.182 556.512 159.23 584.787 153.146C589.423 152.149 594.971 149.823 595.883 143.867C597.012 136.504 589.76 131.469 583.974 132.082C578.189 132.696 572.482 136.223 566.776 134.792C562.437 133.693 558.87 129.909 555.403 126.356C550.033 120.834 544.188 115.466 537.392 114.264C530.596 113.088 522.729 117.562 520.986 126.1C513.615 124.157 507.017 119.019 500.062 115.261C493.127 111.503 485.103 109.152 478.148 112.884C471.193 116.642 466.715 128.605 471.035 136.581C467.092 129.296 441.195 146.014 437.291 149.44C431.228 154.782 427.84 157.339 435.152 159.486C442.245 161.582 452.548 156.623 459.82 156.112C472.798 155.191 486.014 156.648 499.012 157.134Z" fill="#E3E5FC"/>
<g filter="url(#filter0_d)">
<path d="M15 385H685.5V636.278C685.5 636.278 634.5 663.307 560.758 631.773C525.911 612.752 477.741 582.218 437.77 598.736C398.824 608.247 374.076 620.26 355.266 644.286C336.456 668.313 333.743 686.833 306.071 693.841C278.398 700.849 259.438 695.843 248.676 682.328C237.915 668.813 226.071 649.655 222.029 630.771C208.743 568.703 182.571 563.697 169.247 560.194C155.923 556.69 116.316 560.194 107.753 597.234C99.1903 634.275 75.4689 663.307 53.4336 663.307C31.3983 663.307 15 641.784 15 636.278C15 590.727 15 385 15 385Z" fill="url(#paint1_linear)"/>
</g>
<path d="M130.739 182.249C124.999 182.169 117.151 179.776 118.075 174.105C118.857 169.279 125.541 168.355 130.177 169.863C134.813 171.371 139.67 174.126 144.226 172.396C146.052 171.713 147.618 170.345 149.545 170.023C151.552 169.702 153.619 170.586 155.606 170.124C158.496 169.481 160.182 166.263 163.012 165.399C167.728 163.951 172.987 169.641 177.262 167.168C179.931 165.62 180.212 161.98 180.814 158.944C183.182 147.362 196.569 139.379 207.869 142.797C222.62 147.281 230.267 166.665 245.601 168.153C251.963 168.777 278.215 163.75 273.418 179.213C270.448 188.764 239.74 183.637 231.893 183.536C198.195 183.134 164.477 182.692 130.739 182.249Z" fill="#E3E5FC"/>
<defs>
<filter id="filter0_d" x="0" y="385" width="700.5" height="342" filterUnits="userSpaceOnUse" color-interpolation-filters="sRGB">
<feFlood flood-opacity="0" result="BackgroundImageFix"/>
<feColorMatrix in="SourceAlpha" type="matrix" values="0 0 0 0 0 0 0 0 0 0 0 0 0 0 0 0 0 0 127 0"/>
<feOffset dy="15"/>
<feGaussianBlur stdDeviation="7.5"/>
<feColorMatrix type="matrix" values="0 0 0 0 0.929167 0 0 0 0 0.921424 0 0 0 0 0.921424 0 0 0 1 0"/>
<feBlend mode="normal" in2="BackgroundImageFix" result="effect1_dropShadow"/>
<feBlend mode="normal" in="SourceGraphic" in2="effect1_dropShadow" result="shape"/>
</filter>
<linearGradient id="paint0_linear" x1="15" y1="0" x2="747.046" y2="349.617" gradientUnits="userSpaceOnUse">
<stop stop-color="#BEE7F0"/>
<stop offset="1" stop-color="#C3B1F9"/>
</linearGradient>
<linearGradient id="paint1_linear" x1="14.997" y1="319.493" x2="685.945" y2="329.282" gradientUnits="userSpaceOnUse">
<stop stop-color="#CBDDEF"/>
<stop offset="0.484375" stop-color="#C1C9F5"/>
<stop offset="1" stop-color="#C3B2F9"/>
</linearGradient>
</defs>
</svg>
