<svg width="1280" height="719" viewBox="0 0 1280 719" fill="none" xmlns="http://www.w3.org/2000/svg">
<rect width="1280" height="495" fill="url(#paint0_linear)"/>
<path d="M862.339 187.725C904.187 188.923 946.324 190.12 987.622 183.167C994.394 182.028 1002.5 179.369 1003.83 172.562C1005.48 164.148 994.886 158.393 986.435 159.094C977.985 159.795 969.65 163.827 961.315 162.191C954.977 160.934 949.768 156.61 944.703 152.55C936.86 146.239 928.323 140.104 918.396 138.731C908.47 137.387 896.981 142.499 894.434 152.257C883.668 150.037 874.031 144.165 863.873 139.87C853.744 135.575 842.023 132.888 831.865 137.153C821.706 141.448 815.166 155.12 821.475 164.236C815.716 155.909 777.891 175.016 772.189 178.931C763.334 185.037 758.385 187.958 769.064 190.413C779.424 192.808 794.473 187.14 805.095 186.556C824.051 185.504 843.354 187.17 862.339 187.725Z" fill="#E3E5FC"/>
<path d="M92.3345 211.754C81.3695 211.601 66.3788 207.038 68.1424 196.224C69.6377 187.021 82.4046 185.257 91.261 188.133C100.117 191.009 109.395 196.263 118.099 192.965C121.587 191.661 124.578 189.054 128.258 188.44C132.092 187.827 136.041 189.514 139.837 188.632C145.358 187.405 148.578 181.269 153.984 179.621C162.994 176.86 173.039 187.712 181.205 182.995C186.304 180.042 186.841 173.102 187.991 167.312C192.515 145.225 218.087 130.002 239.672 136.52C267.852 145.071 282.459 182.036 311.75 184.874C323.904 186.063 374.052 176.476 364.889 205.964C359.214 224.178 300.555 214.4 285.565 214.208C221.193 213.441 156.783 212.598 92.3345 211.754Z" fill="#E3E5FC"/>
<g filter="url(#filter0_d)">
<path d="M0 377H1280V487.5C1280 487.5 1282.19 486.958 1268.5 495C1257.68 501.358 1248.5 500.569 1230 515C1205.99 533.729 1199 585.5 1159 585.5C1119 585.5 1117 540.073 1035.5 536C985 533.476 958 594 890.5 596.5C850.5 597.981 835 547.5 798.5 555.5C736.72 569.041 726.372 624.606 679 640.5C641.896 652.949 565 644 532.5 623.5C498.5 604.5 451.5 574 412.5 590.5C374.5 600 350.353 612 332 636C313.647 660 311 678.5 284 685.5C257 692.5 238.5 687.5 228 674C217.5 660.5 205.944 641.363 202 622.5C189.036 560.5 163.5 555.5 150.5 552C137.5 548.5 98.8548 552 90.5 589C82.1452 626 59 655 37.5 655C16 655 4.3869e-05 633.5 4.3869e-05 628C2.58781e-05 582.5 0 377 0 377Z" fill="url(#paint1_linear)"/>
</g>
<path d="M754.688 301.396L762.832 299.707L757.059 306.343L754.688 301.396Z" fill="#4B369D"/>
<path d="M723.787 323.398C721.511 326.11 719.187 329.368 716.385 331.795C713.582 334.197 708.336 334.673 706.228 337.265C712.768 344.354 728.913 339.335 735.979 335.648C745.393 330.748 753.059 322.328 756.388 312.242C758.161 306.866 758.449 300.111 754.161 296.377C752.077 294.569 749.298 293.808 746.591 293.213C742.351 292.262 737.153 291.262 732.961 292.951C726.589 295.52 733.536 295.14 734.973 298.042C736.65 301.467 733.153 308.008 731.644 310.958C729.344 315.287 726.925 319.616 723.787 323.398Z" fill="#A7ADFF"/>
<path d="M748.747 301.396C749.686 301.396 750.448 300.64 750.448 299.707C750.448 298.774 749.686 298.018 748.747 298.018C747.808 298.018 747.046 298.774 747.046 299.707C747.046 300.64 747.808 301.396 748.747 301.396Z" fill="#4B369D"/>
<path d="M720.194 302.466C715.81 300.896 710.875 300.016 707.57 296.757C705.749 294.95 704.216 292.357 701.653 292.143C701.27 292.119 700.838 292.143 700.551 292.428C700.192 292.761 700.192 293.308 700.216 293.808C700.359 296.71 700.527 299.683 701.677 302.347C702.827 305.011 705.222 307.342 708.145 307.604C708.504 307.628 708.887 307.651 709.198 307.818C710.085 308.341 709.582 309.745 708.815 310.411C708.025 311.077 706.947 311.6 706.731 312.599C706.492 313.646 707.426 314.692 708.48 314.978C709.534 315.263 710.636 315.025 711.714 314.764C711.33 316.619 711.235 319.069 712.983 319.806C714.516 320.425 716.6 319.212 717.774 320.353C718.205 320.782 718.373 321.424 718.613 321.971C719.403 323.779 721.391 324.897 723.379 325.087C725.368 325.277 727.356 324.706 729.176 323.898C733.871 321.828 739.046 317.214 735.285 312.433C731.716 307.913 725.511 304.393 720.194 302.466Z" fill="#978CFF"/>
<defs>
<filter id="filter0_d" x="-15" y="377" width="1310.13" height="341.655" filterUnits="userSpaceOnUse" color-interpolation-filters="sRGB">
<feFlood flood-opacity="0" result="BackgroundImageFix"/>
<feColorMatrix in="SourceAlpha" type="matrix" values="0 0 0 0 0 0 0 0 0 0 0 0 0 0 0 0 0 0 127 0"/>
<feOffset dy="15"/>
<feGaussianBlur stdDeviation="7.5"/>
<feColorMatrix type="matrix" values="0 0 0 0 0.929167 0 0 0 0 0.921424 0 0 0 0 0.921424 0 0 0 1 0"/>
<feBlend mode="normal" in2="BackgroundImageFix" result="effect1_dropShadow"/>
<feBlend mode="normal" in="SourceGraphic" in2="effect1_dropShadow" result="shape"/>
</filter>
<linearGradient id="paint0_linear" x1="0" y1="0" x2="937.137" y2="853.777" gradientUnits="userSpaceOnUse">
<stop stop-color="#BEE7F0"/>
<stop offset="1" stop-color="#C3B1F9"/>
</linearGradient>
<linearGradient id="paint1_linear" x1="-0.00292232" y1="311.565" x2="1265.94" y2="321.454" gradientUnits="userSpaceOnUse">
<stop stop-color="#C0D7F3"/>
<stop offset="0.484375" stop-color="#C1C7F5"/>
<stop offset="1" stop-color="#C3B2F9"/>
</linearGradient>
</defs>
</svg>
