<svg width="124" height="96" viewBox="0 0 124 96" fill="none" xmlns="http://www.w3.org/2000/svg">
<path d="M54.3632 3.58542C55.5555 1.85491 58.1116 1.85491 59.304 3.58543L102.813 66.733C104.184 68.7232 102.76 71.4351 100.343 71.4351H13.3244C10.9075 71.4351 9.48275 68.7232 10.8541 66.733L54.3632 3.58542Z" fill="url(#paint0_linear)"/>
<path d="M74.9562 18.4633C76.1528 16.79 78.6402 16.79 79.8368 18.4633L114.363 66.7462C115.783 68.7317 114.364 71.4912 111.923 71.4912H42.87C40.4292 71.4912 39.01 68.7317 40.4298 66.7462L74.9562 18.4633Z" fill="url(#paint1_linear)"/>
<path d="M56.1506 29.0199C57.3472 27.3471 59.834 27.3471 61.0306 29.0199L88.2178 67.0267C89.638 69.0121 88.2189 71.7721 85.7778 71.7721H31.4034C28.9624 71.7721 27.5432 69.0121 28.9634 67.0267L56.1506 29.0199Z" fill="url(#paint2_linear)"/>
<defs>
<linearGradient id="paint0_linear" x1="56.8336" y1="-2.80501e-06" x2="18.9447" y2="64.7514" gradientUnits="userSpaceOnUse">
<stop stop-color="#EE98F0"/>
<stop offset="1" stop-color="#F5ABB1"/>
</linearGradient>
<linearGradient id="paint1_linear" x1="77.3965" y1="15.0508" x2="112.097" y2="65.4465" gradientUnits="userSpaceOnUse">
<stop stop-color="#FFCD4E"/>
<stop offset="1" stop-color="#FBDC78"/>
</linearGradient>
<linearGradient id="paint2_linear" x1="58.5906" y1="25.6089" x2="79.832" y2="70.5883" gradientUnits="userSpaceOnUse">
<stop stop-color="#F9A577"/>
<stop offset="1" stop-color="#FFC75C"/>
</linearGradient>
</defs>
</svg>