<svg width="494" height="522" viewBox="0 0 494 522" fill="none" xmlns="http://www.w3.org/2000/svg">
<path fill-rule="evenodd" clip-rule="evenodd" d="M315 522C413.859 522 494 441.859 494 343C494 244.141 413.859 164 315 164C216.141 164 136 244.141 136 343C136 441.859 216.141 522 315 522Z" fill="url(#paint0_linear)"/>
<path opacity="0.4" fill-rule="evenodd" clip-rule="evenodd" d="M41 314C63.6437 314 82 295.644 82 273C82 250.356 63.6437 232 41 232C18.3563 232 0 250.356 0 273C0 295.644 18.3563 314 41 314Z" fill="url(#paint1_linear)"/>
<path fill-rule="evenodd" clip-rule="evenodd" d="M338.5 0L362 23.5L338.5 47L315 23.5L338.5 0Z" fill="url(#paint2_linear)"/>
<path fill-rule="evenodd" clip-rule="evenodd" d="M136 59L160 83L136 107L112 83L136 59Z" fill="url(#paint3_linear)"/>
<path opacity="0.4" fill-rule="evenodd" clip-rule="evenodd" d="M70 435L82 447L70 459L58 447L70 435Z" fill="#454EFF"/>
<defs>
<linearGradient id="paint0_linear" x1="234.061" y1="199.411" x2="406.835" y2="489.702" gradientUnits="userSpaceOnUse">
<stop stop-color="#C1E6F0"/>
<stop offset="1" stop-color="#F1C1EA"/>
</linearGradient>
<linearGradient id="paint1_linear" x1="41" y1="232" x2="41" y2="314" gradientUnits="userSpaceOnUse">
<stop stop-color="#2B44FF"/>
<stop offset="1" stop-color="#6BC1D5"/>
</linearGradient>
<linearGradient id="paint2_linear" x1="338.5" y1="0" x2="338.5" y2="47" gradientUnits="userSpaceOnUse">
<stop stop-color="#AAB4FF"/>
<stop offset="1" stop-color="#DED0ED"/>
</linearGradient>
<linearGradient id="paint3_linear" x1="136" y1="59" x2="136" y2="107" gradientUnits="userSpaceOnUse">
<stop stop-color="#E6CAEC"/>
<stop offset="1" stop-color="#F2B6FF"/>
</linearGradient>
</defs>
</svg>
